<?xml version="1.0" encoding="UTF-8"?>
<svg id="Layer_1" data-name="Layer 1" xmlns="http://www.w3.org/2000/svg" viewBox="0 0 162.12 20.51">
  <defs>
    <style>
      .cls-1 {
        fill: #fff;
      }
    </style>
  </defs>
  <g>
    <path class="cls-1" d="M0,.64h10.53v2.12H2.52v6.5h7.4v2.09H2.52v8.85H0V.64Z"/>
    <path class="cls-1" d="M15.02,14.04l-2.03,6.15h-2.61L17.02.64h3.05l6.67,19.55h-2.7l-2.09-6.15h-6.93ZM21.43,12.07l-1.91-5.63c-.44-1.28-.73-2.44-1.02-3.57h-.06c-.29,1.16-.61,2.35-.99,3.54l-1.91,5.66h5.89Z"/>
    <path class="cls-1" d="M29.26,17.11c1.13.7,2.78,1.28,4.52,1.28,2.58,0,4.09-1.36,4.09-3.34,0-1.83-1.04-2.87-3.68-3.89-3.19-1.13-5.16-2.78-5.16-5.54,0-3.05,2.52-5.31,6.32-5.31,2,0,3.45.46,4.32.96l-.7,2.06c-.64-.35-1.94-.93-3.71-.93-2.67,0-3.68,1.6-3.68,2.93,0,1.83,1.19,2.73,3.89,3.77,3.31,1.28,4.99,2.87,4.99,5.74,0,3.02-2.23,5.63-6.85,5.63-1.89,0-3.94-.55-4.99-1.25l.64-2.12Z"/>
    <path class="cls-1" d="M46.43.64v8.18h9.46V.64h2.55v19.55h-2.55v-9.17h-9.46v9.17h-2.52V.64h2.52Z"/>
    <path class="cls-1" d="M65.34.64v19.55h-2.52V.64h2.52Z"/>
    <path class="cls-1" d="M86.45,10.21c0,6.73-4.09,10.3-9.08,10.3s-8.79-4-8.79-9.92c0-6.21,3.86-10.27,9.08-10.27s8.79,4.09,8.79,9.89ZM71.28,10.53c0,4.18,2.26,7.92,6.24,7.92s6.27-3.68,6.27-8.12c0-3.89-2.03-7.95-6.24-7.95s-6.27,3.86-6.27,8.15Z"/>
    <path class="cls-1" d="M89.73,20.19V.64h2.76l6.27,9.89c1.45,2.29,2.58,4.35,3.51,6.35l.06-.03c-.23-2.61-.29-4.99-.29-8.03V.64h2.38v19.55h-2.55l-6.21-9.92c-1.36-2.18-2.67-4.41-3.65-6.53l-.09.03c.15,2.47.2,4.82.2,8.06v8.35h-2.38Z"/>
  </g>
  <g>
    <path class="cls-1" d="M135.04.32v11.57c0,4.38,1.94,6.24,4.55,6.24,2.9,0,4.76-1.91,4.76-6.24V.32h2.55v11.4c0,6-3.16,8.47-7.4,8.47-4,0-7.02-2.29-7.02-8.35V.32h2.55Z"/>
    <path class="cls-1" d="M150.93,16.79c1.13.7,2.78,1.28,4.52,1.28,2.58,0,4.09-1.36,4.09-3.34,0-1.83-1.04-2.87-3.68-3.89-3.19-1.13-5.16-2.78-5.16-5.54,0-3.05,2.52-5.31,6.32-5.31,2,0,3.45.46,4.32.96l-.7,2.06c-.64-.35-1.94-.93-3.71-.93-2.67,0-3.68,1.6-3.68,2.93,0,1.83,1.19,2.73,3.89,3.77,3.31,1.28,4.99,2.87,4.99,5.74,0,3.02-2.23,5.63-6.85,5.63-1.88,0-3.94-.55-4.99-1.25l.64-2.12Z"/>
  </g>
  <path class="cls-1" d="M130.09,19.87h-4.9v-8.47h-4.61c-4.45.09-6.47,1.1-7.6,3.8-1.07,2.44-1.91,4.12-2.53,4.67h-5.06c.79-.75,1.69-2.64,2.93-5.37.9-2.03,2.65-3.42,5.57-3.94v-.09c-4-.7-7.15-2.41-7.15-4.99,0-1.51,1.07-2.84,2.98-3.71,2.36-1.1,5.74-1.6,10.97-1.6,3.38,0,6.92.15,9.4.41v19.29ZM125.2,2.35c-.79-.12-2.48-.23-4.84-.23-5.18.03-8.72,1.13-8.72,3.66,0,2.23,3.32,3.71,8.55,3.71h5.01V2.35Z"/>
</svg>